# xmcd
#
# Track frame offsets:
#	150
#	12515
#	25539
#	39719
#	51823
#	65582
#	77977
#	90725
#	103268
#	115697
#	129095
#	141180
#	155472
#	167130
#	179489
#	191232
#	201659
#	212534
#
# Disc length: 3003
#
# Revision: 1
# Processed by: cddbd v1.5.1PL0 Copyright (c) Steve Scherf et al.
# Submitted via: EasyCDDAExtractor 7.5.0.1
# Normalized: r0:DSETVAR1
#
DISCID=030bb912
DTITLE=Various Artist - The Collection Of American Folk Music
DYEAR=2001
DGENRE=Country
TTITLE0=The Rice Brothers Gang - You Are My Sunshine
TTITLE1=Gene Autry and Jimmy Long - The Yellow Rose Of Texas
TTITLE2=The Carter Family - Wildwood Flowers
TTITLE3=Riley Puckett - Red Wing
TTITLE4=Uncle Dave Macon - Go Long Mule
TTITLE5=Carl Robison and His Pioneers - Goin' To The Barn Dance Tonight
TTITLE6=Jimmie Rodgers - Frankie And Johnny
TTITLE7=Bayless Rose - Jamestown Exhibition
TTITLE8=Cisco Houston and Woody Guthrie - John Henry
TTITLE9=Pete Seeger - Talking Union
TTITLE10=Burl Ives - I Know An Old Lady
TTITLE11=Woody Guthrie - Pretty Boy Floyd
TTITLE12=Woody Guthrie - Do - Re - Mi
TTITLE13=The Carter Family - Anchored In Love
TTITLE14=The Delmore Brothers - Brown's Ferry Blues
TTITLE15=Woody Guthrie - This Land Is Your Land
TTITLE16=Gene Autry - Red River Vally
TTITLE17=Johnnie Lee Wills And His Boys - Milk Cow Blues
EXTD=
EXTT0=
EXTT1=
EXTT2=
EXTT3=
EXTT4=
EXTT5=
EXTT6=
EXTT7=
EXTT8=
EXTT9=
EXTT10=
EXTT11=
EXTT12=
EXTT13=
EXTT14=
EXTT15=
EXTT16=
EXTT17=
PLAYORDER=
